<svg xmlns="http://www.w3.org/2000/svg" viewBox="0 0 64 64">
  <path fill="#19037c" d="M32 8c-3.5 0-6.5 1.8-8.2 4.5-1.2-.5-2.5-.8-3.8-.8-5.5 0-10 4.5-10 10 0 1.3.3 2.5.7 3.6C8.7 26.5 7 29 7 32c0 3.5 2 6.5 5 8v6c0 5.5 4.5 10 10 10h4v-8h12v8h4c5.5 0 10-4.5 10-10v-6c3-1.5 5-4.5 5-8 0-3-1.7-5.5-3.7-6.7.4-1.1.7-2.3.7-3.6 0-5.5-4.5-10-10-10-1.3 0-2.6.3-3.8.8C38.5 9.8 35.5 8 32 8zm0 4c2.2 0 4 1.8 4 4v4h-8v-4c0-2.2 1.8-4 4-4zM20 15c3.3 0 6 2.7 6 6v3h-6c-2.2 0-4-1.8-4-4s1.8-4 4-4zm24 0c2.2 0 4 1.8 4 4s-1.8 4-4 4h-6v-3c0-3.3 2.7-6 6-6zM16 28h32c2.2 0 4 1.8 4 4s-1.8 4-4 4H16c-2.2 0-4-1.8-4-4s1.8-4 4-4zm6 12h20v6c0 3.3-2.7 6-6 6h-8c-3.3 0-6-2.7-6-6v-6z"/>
</svg>
